<?xml version="1.0" encoding="utf-8"?>
<!-- Generator: Adobe Illustrator 21.1.0, SVG Export Plug-In . SVG Version: 6.00 Build 0)  -->
<svg version="1.1" id="Layer_1" xmlns="http://www.w3.org/2000/svg" xmlns:xlink="http://www.w3.org/1999/xlink" x="0px" y="0px"
	 viewBox="0 0 116.2 46.5" style="enable-background:new 0 0 116.2 46.5;" xml:space="preserve">
<style type="text/css">
	.st0{fill:#FFFFFF;}
	.st1{fill:#CD0014;}
</style>
<title>partner</title>
<path class="st0" d="M68.2,6.1c1.7-0.1,3.3,0.5,4.5,1.6l-1.3,1.9c-1.7-1.7-4.5-1.7-6.2,0c-0.9,0.9-1.4,2.2-1.3,3.5
	c-0.2,2.4,1.6,4.6,4.1,4.8c0.1,0,0.2,0,0.3,0c1.5,0,3-0.7,4-1.8l1.1,1.9c-2.6,2.7-6.9,2.9-9.6,0.3c-1.4-1.3-2.2-3.2-2.2-5.1
	c-0.2-3.7,2.7-6.8,6.3-7C68,6.1,68.1,6.1,68.2,6.1z M74.2,21.8c0.4,0.1,0.7,0.2,1.1,0.2c0.7,0,1.3-0.6,1.2-1.3c0,0,0-0.1,0-0.1
	c0-0.2,0-0.5-0.1-0.7l-3.5-9.7h2.4l2.4,7.1l2.2-7.1h2.3l-3.9,11.5C78.2,23.1,77,24,75.6,24c-0.5,0-0.9-0.1-1.4-0.2L74.2,21.8z"/>
<path class="st0" d="M97.7,19.9h-2.2v-5.3c0-1.7-0.5-2.6-1.8-2.6c-1.3,0-2.1,1.1-2.1,3.1v4.8h-2.2V14c0-1.3-0.6-2.1-1.7-2.1
	c-1.4,0-2.1,1.3-2.1,3.1v4.8h-2.2v-9.6h2.2v1.9c0.4-1.3,1.7-2.2,3.1-2.1c1.3-0.1,2.4,0.8,2.7,2c0.5-1.2,1.8-2,3.1-2
	c2.3,0,3.4,1.5,3.4,4.7V19.9z"/>
<path class="st0" d="M105.1,12.5c-0.4-0.3-0.8-0.5-1.3-0.5c-1.6,0-2.4,1.3-2.4,3.3v4.5h-2.2v-9.7h2.2V12c0.3-1.2,1.5-2,2.8-2
	c0.7,0,1.3,0.3,1.8,0.7L105.1,12.5z"/>
<path class="st0" d="M106.8,10.2h2.2v5c0,1.9,0.6,3,2,3s2.4-1,2.4-3.3v-4.7h2.2v6.4c-0.1,1.1,0,2.2,0.5,3.2H114
	c-0.3-0.6-0.4-1.3-0.4-2c-0.5,1.3-1.8,2.2-3.2,2.2c-2.4,0-3.5-1.7-3.5-4.9L106.8,10.2z"/>
<path class="st0" d="M75.8,39.1h-2.2L70.8,29L68,39.1h-2.2l-3.9-13.5h2.4l2.7,9.9l2.7-9.9H72l2.7,9.9l2.6-9.9h2.4L75.8,39.1z"/>
<path class="st0" d="M79.3,31.8c0.5-1.6,2-2.7,3.7-2.6c2.7,0,3.9,1.3,3.9,4.1v3.7c0,0.7,0.2,1.4,0.6,2h-2.2c-0.4-0.5-0.6-1-0.6-1.6
	c-0.3,1.2-1.4,1.9-2.6,1.8c-1.7,0.1-3.1-1.2-3.1-2.8c0-0.1,0-0.2,0-0.3c0-2,1.6-2.9,3.6-3.2l2.2-0.3c0.1-0.8-0.4-1.6-1.3-1.8
	c-0.1,0-0.3,0-0.4,0c-0.9-0.1-1.7,0.6-1.8,1.5L79.3,31.8z M84.8,35.1v-0.7l-1.8,0.2c-0.9,0.1-1.8,0.5-1.8,1.5c0,0.7,0.6,1.3,1.3,1.3
	c0,0,0.1,0,0.1,0c1.2,0,2.2-0.9,2.2-2.1C84.8,35.3,84.8,35.2,84.8,35.1L84.8,35.1z"/>
<path class="st0" d="M88.8,25.6H91v10.3c-0.1,1.1,0,2.2,0.5,3.2h-2.2c-0.4-1-0.6-2.1-0.5-3.2V25.6z"/>
<path class="st0" d="M94.7,34.9c0.1,1.5,1.3,2.6,2.8,2.6c1.1,0,2.1-0.5,2.7-1.4l1.3,1.4c-1,1.2-2.5,1.9-4.1,1.9
	c-2.7,0.1-4.9-2-5-4.6c0-0.1,0-0.3,0-0.4c-0.1-2.7,1.9-4.9,4.6-5.1c0.1,0,0.1,0,0.2,0c2.2-0.1,4.2,1.6,4.3,3.8c0,0.1,0,0.2,0,0.3
	c0,0.5,0,1-0.1,1.5L94.7,34.9z M94.9,33h4.6c-0.1-1.1-1.1-2-2.2-1.9c0,0,0,0,0,0C96.1,31.1,95.1,31.9,94.9,33L94.9,33z"/>
<path class="st0" d="M105.8,34.9c-1.5-0.6-2.8-1.5-2.8-3c0-1.7,1.5-2.7,3.4-2.7c1.2,0,2.4,0.5,3.2,1.5l-1.1,1.4
	c-0.6-0.6-1.3-1-2.1-1.1c-0.8,0-1.4,0.3-1.4,0.8s0.9,1,2.2,1.5c1.8,0.8,2.7,1.6,2.7,3c0,1.9-1.5,3-3.4,3c-1.6,0.1-3.1-0.7-3.9-2.1
	l1.5-1.4c0.4,0.9,1.3,1.5,2.3,1.5c0.7,0,1.3-0.4,1.3-0.9S107.2,35.5,105.8,34.9z"/>
<path class="st1" d="M10.1,26.3C6.9,24.8,5,22.1,5.3,20c0.1-1.2,0.2-1.7-0.3-2.2c-0.4-0.5-1.1-0.7-1.7-0.6c0.5,0.1,0.9,0.7,0.7,1.2
	C4,18.7,3.8,18.9,3.7,19l-0.1,0.1c-0.2-0.9-1-1.5-1.8-1.5C1,17.6,0.3,18,0,18.6c0.2-0.1,0.4-0.2,0.6-0.2c0.7,0.1,1.2,0.7,1.1,1.3
	c-0.1,0.6-0.5,1.1-1.1,1.1c-0.2,0-0.5-0.1-0.6-0.2c0.3,0.6,1,1.1,1.7,1.1H2c0.2,1.1,0.9,2.1,1.9,2.6c-0.3,0.7-0.4,1.5-0.1,2.3
	c0.2,1,0.2,2-0.2,2.9c1-0.3,1.7-1.1,2-2.1c0.2,0,2.3,0.1,3.1,2.9c0.4,1.5-0.2,3.2-1.5,4.1c1,0,2-0.3,2.7-1c0.3,0.3,0.7,0.7,1.1,0.9
	c0.1-0.8,0.1-1.6,0-2.4C9.9,30.2,9.6,28.2,10.1,26.3z"/>
<path class="st1" d="M21.5,9.3c0.2-0.1,1.3-0.7,1.3-1.7c0-0.6-0.3-1.1-0.7-1.5c0.1,1-0.7,1.9-1.7,2c-1.5,0.4-1.8,1.4-1.8,1.6
	C19.5,9.8,20.5,9.7,21.5,9.3z"/>
<path class="st1" d="M11.5,30.6c0.3-1.9,1.6-3.4,3.5-3.9c0.1-0.7,0.3-1.4,0.5-2.1c-1.6,0-3.1,0.8-4.1,2C10.9,27.9,11,29.3,11.5,30.6
	z"/>
<path class="st1" d="M15.9,23.3L15.9,23.3l0.6-2.1c-1.3,0-2.6,0.4-3.5,1.3c-0.7,0.6-1.1,1.4-1.3,2.3C12.9,23.8,14.4,23.3,15.9,23.3z
	"/>
<path class="st1" d="M6.5,13.9c0-0.1,0.3-0.6,0.3-0.6C3.5,12.4,2,13.8,2,13.8s2-0.7,3.7,1.6c0,0,0.1-0.3,0.4-0.8l0,0
	c0.3,0.2,3,2.1,5.6,1.2l0.9-1.3C10.5,15.3,8.3,15.1,6.5,13.9z"/>
<path class="st1" d="M24.5,6.4L24.5,6.4c-0.4,2.3-2.4,4.1-4.8,4.2c-0.7,0-1.3-0.1-1.9-0.2l-0.4-0.1l0,0c-1.2-0.4-2.5-0.2-3.5,0.4
	c-0.2,0.3-0.6,1.5-1.7,1.6h-0.3c-1.3,0-3.1-0.4-3.9,1.4c0.3-0.2,0.7-0.3,1-0.3l1.3,1l2.4-0.5h0.1l1.7,1.6l-3.1,1.2
	c-0.3,0-0.6,0-0.9-0.2l1.2,3c0.3-0.9,0.9-1.7,1.8-2.1c0.9-0.5,2-0.6,2.9-0.1c-1.5,0.6-2.6,1.9-2.9,3.5c1-0.7,2.2-1.1,3.4-1l1.9-5.8
	C18.7,14.1,16,12,16,12c-0.5,0.2-1.1,0.3-1.7,0.3l0,0c-0.1,0-0.1-0.1-0.1-0.1c0-0.1,0-0.1,0-0.1c0.7-0.2,1.5-0.5,2.1-1h0.1l3.1,2.3
	c1.2-0.9,2.7-1.5,4.2-1.7c1.7-1.1,2.1-3.4,1-5.1C24.6,6.5,24.6,6.5,24.5,6.4z M14.2,12.4L14.2,12.4z"/>
<path class="st1" d="M20.3,28L20.3,28z"/>
<path class="st1" d="M50.2,9.4c-0.7-0.2-3-0.7-2.5-2.1c0.6-1.9,4.4-2.9,4.4-2.9C41.3,5.8,33.2,9.2,27.7,14.9l-0.3,0.3
	c-1.5,1.6-2.7,3.5-3.6,5.5C24.8,18.5,29.1,8,43.3,5c-1.3-0.1-3.3-0.5-3.5-1.5c-0.3-1,1-2.7,2.4-3.5C29.8,3.3,24.5,13.3,21.5,21.5
	c-0.5,0.3-1,0.8-1.3,1.3c0.4-1.1,2.5-6.3,2.1-9.5c-0.8,0.2-1.6,0.6-2.2,1.2c-0.8,2.3-3,8.4-3.5,10.2c-0.7,2.4-0.7,5,1.4,5.9
	c0.4,0.2,0.9,0.2,1.4,0.2c2.1-0.1,4.1-0.3,6.1-0.8c0.8-0.2,1.6-0.4,2.6-0.7l1.3-0.4c0.2-1.5-0.3-2.9-1.4-3.9c-1.1-0.9-2.6-1.4-4-1.3
	c1.4-0.4,2.9-0.4,4.2,0.2c1.8-1.4,4.3-1.6,6.3-0.6c0,0,2.6-4,7.8-1.7c0.2-3.4,3.1-5.9,6.5-5.7c0,0,0.1,0,0.1,0
	C48.8,15.7,44,11.5,50.2,9.4z M40.2,19.2c-1.8-1.4-4-2.2-6.2-2.3h-0.6c-1.8,0.1-3.5,0.7-4.8,1.9c1.8,0,3.5,0.8,4.5,2.2l0.2,0.3
	l-0.3-0.2c-1.2-0.9-2.7-1.4-4.2-1.4c-0.6,0-1.2,0.1-1.8,0.3c-0.5,0.2-0.9,0.5-1.3,0.7l-0.5,0.4L25,21.4l0.5-0.8
	c1-1.7,2.5-3.1,4.3-3.8c0.5-0.2,1-0.4,1.5-0.5c0.6-0.1,1.3-0.2,1.9-0.2c2.7-0.1,5.4,1,7.2,3L40.2,19.2z M37.2,12.4h0.7
	c2.6,0,5.1,0.5,7.5,1.4v0.1c-2.3-0.5-4.7-0.7-7.1-0.7c-0.5,0-1,0-1.6,0c-2.2,0.2-4.4,0.9-6.3,2l-0.2,0.1l-0.1-0.1l0,0
	c5.4-4.5,11.6-5.5,15.8-5.9v0.1c-0.1,0-6.6,1.3-9.6,3L37.2,12.4z"/>
<path class="st1" d="M22.4,31.7c-1,0.2-2,0.2-3,0.2c-1.1,0.1-2.1-0.3-2.9-0.9c-0.9-0.7-1.5-1.8-1.5-3c-0.9,0.3-1.6,0.9-2,1.7
	c-0.4,0.8-0.7,1.7-0.7,2.5c0.3,1.6-0.1,3.2-1.1,4.5c0,0.6-0.1,1.1-0.3,1.6c-0.4,1.1-1.4,3.1-3.2,3.7c-0.6,0-1.1-0.3-1.4-0.7
	c-1.4-1.9-2.8-1.1-3.3-0.6c0.4-0.2,0.9-0.1,1.1,0.3c0.1,0.1,0.1,0.3,0.1,0.4c-0.1,0.5-0.5,0.8-0.9,0.8l0,0c-0.8-0.1-1.6,0.5-1.7,1.4
	c0,0.2,0,0.4,0,0.6l0,0c0.3-0.5,0.9-0.7,1.3-0.4c0.5,0.3,0.7,0.9,0.4,1.3c-0.2,0.3-0.4,0.5-0.8,0.5c-0.1,0-0.2,0.1-0.3,0.1l0,0
	c0.6,0.4,1.5,0.3,2-0.3c1.6,0.8,3.5,0.8,5.1,0c0.8,0.4,1.6,0.4,2.4,0.1c0.9-0.3,2.2-0.8,3.4,0c-0.5-2.1-2.7-2.2-2.7-4.7
	c0-1,0.9-1.8,1.9-1.8c0.7,0,1.3,0.4,1.6,1c0.4-0.7,0.2-1.6-0.5-2.1c1.1-1.3,3.1-0.4,3.1-0.4c0.1-0.4,0-0.7-0.2-1.1
	C21,35.5,22.1,32.7,22.4,31.7z"/>
<path class="st1" d="M24.5,34.6c0.6-1.1,1-2.3,1.1-3.5c-0.7,0.2-1.3,0.3-2,0.4c-0.4,1.4-1,2.6-1.8,3.8
	C22.7,35.5,23.7,35.3,24.5,34.6z"/>
<path class="st1" d="M28.2,34L28.2,34c0.7-1.2,1.2-2.6,1.3-4l-1,0.3c-0.7,0.2-1.3,0.4-1.9,0.5c-0.2,1.4-0.6,2.8-1.2,4.1
	C26.5,35,27.5,34.6,28.2,34z"/>
<path class="st1" d="M32.8,29.2c-0.8,0.2-1.4,0.3-2.2,0.5c0,1.5-0.5,3-1.2,4.3c0.7-0.1,1.3-0.4,1.9-0.8C32.1,32,32.6,30.7,32.8,29.2
	z"/>
<path class="st1" d="M33.9,27.9c0.6-0.1,1.3-0.2,1.9-0.2c-0.1-2.5-1.4-3.4-1.8-3.6c-0.6-0.2-1.2-0.2-1.8-0.1
	C33.2,25,33.9,26.4,33.9,27.9z"/>
<path class="st1" d="M30.5,28.6c0.7-0.2,1.5-0.4,2.3-0.5c-0.2-2.6-1.5-3.5-2-3.8c-0.6-0.1-1.2-0.1-1.8,0.1
	C30.1,25.5,30.7,27.1,30.5,28.6z"/>
<path class="st1" d="M34.1,41.1c0-0.6,0.2-1.2,0.6-1.6c0.7-0.1,1.3,0.3,1.5,0.9c0.3-0.7,0.1-1.5-0.5-1.9c-0.3-0.4-0.4-0.9-0.3-1.4
	c0.1-0.4,0.2-0.7,0.5-1c0.2-0.3,0.5-0.6,0.8-0.8c-1.9-1.2-4.3-1.3-6.2-0.2c-0.7,0.8-0.9,1.8-0.5,2.8c1,0.8,1.7,1.7,2.2,2.9
	c0.3,0.7,0,1.5-0.7,1.8c-0.6,0.3-1.4,0.1-1.8-0.6c-1.2-1.4-2.3-1.4-3-1.2c0.4,0.1,0.7,0.4,0.7,0.8c-0.1,0.5-0.5,0.8-0.9,0.8
	c-0.8-0.1-1.6,0.4-1.7,1.2c0,0.2,0,0.3,0,0.5c0.5-0.5,1.2-0.5,1.7,0c0.5,0.5,0.5,1.2,0,1.7c-0.1,0.1-0.2,0.1-0.3,0.2
	c0.6,0.2,1.2,0,1.6-0.4c1.7,0.8,3.6,0.7,5.1-0.3c0.6,0.7,1.6,0.8,2.4,0.3c0.7-0.3,1.5-0.2,2.1,0.2C36.4,43.6,34.1,44.1,34.1,41.1z"
	/>
<path class="st1" d="M50,43.1c-1.9-1.4-2.4-2.7-1.8-3.2c0.5-0.5,1.4,0,1.4,0c-0.5-1.2-1.2-1.2-1.7-1.4c-2.8-1.2-2.9-4.3-3.9-6.1
	c-1.3-1.7-3.1-2.9-5.2-3.4c-1.6-0.2-3.2-0.2-4.8,0.1c-0.1,1.4-0.5,2.8-1.2,4.1c1.5-0.1,3,0.3,4.2,1.2l0.1,0.1l0.1,0.1l0.3,0.2h0.1
	l0.3,0.2l0.1,0.1l0,0c0.9,0.8,1.5,1.8,2,2.9c3-0.2,5.2,2.4,5.5,3c0.6,1.1-0.4,2.2-2,0.6c-1.5-1.6-2.7-0.7-3.2-0.2
	c0.4-0.2,0.8-0.1,1,0.2c0.1,0.1,0.1,0.3,0.1,0.4c0,0.4-0.3,0.7-0.8,0.8l0,0c-2,0.3-1.3,1.9-1.3,1.9l0,0c0.3-0.5,1-0.7,1.5-0.4
	c0.5,0.3,0.7,1,0.4,1.5c-0.1,0.2-0.2,0.3-0.3,0.4c0.5,0.1,1.1,0,1.5-0.2c1.8,0.6,3.8,0.5,5.5-0.2c0.8,0.5,1.8,0.7,2.7,0.4
	c0.9-0.3,1.8-0.1,2.5,0.6C52.8,44.3,51.1,43.9,50,43.1z"/>
<path class="st1" d="M49.9,15.9c0.4,0.2,0.8,0.5,1.2,0.8l-1.1,1.1c0.3,0.3,0.6,0.5,0.9,0.9l1.1-1.2c0.4,0.4,0.8,0.8,1.1,1.2
	c1.1-4.9,5-5.5,5-5.5S54.8,11.9,49.9,15.9z"/>
<path class="st1" d="M47.1,17.6L47.1,17.6c-1.7,0-3.2,1.3-3.3,3.1c0,1.4,1.2,2.4,2.5,2.4c0.7,0,1.4-0.4,1.8-1c0-0.5-0.2-0.9-0.5-1.2
	c-0.2,0.2-0.5,0.3-0.8,0.4c-0.4,0-0.7-0.2-0.7-0.6c0,0,0-0.1,0-0.1c0-0.4,0.6-0.7,1-0.7c1.3,0,1.8,1.2,1.8,2.5
	c0,1.8-1.9,3.3-3.7,3.3l0,0c-2.9,0-4.8-2.8-10-1.9c0,0,1.5,1,1.7,3.9c0.6,0,1.2,0.1,1.9,0.2c2.5,0.4,4.6,1.8,5.9,3.9
	c1.7-0.3,7.4-2.8,7.4-8.3C52.1,21.4,50.7,17.6,47.1,17.6z"/>
</svg>
