<svg xmlns="http://www.w3.org/2000/svg" width="41mm" height="16.41mm" viewBox="0 0 116.23 46.53"><defs><style>.a{fill:#fff;}</style></defs><title>partner</title><path class="a" d="M68.21,6.13a5.93,5.93,0,0,1,4.48,1.64L71.42,9.63a4.41,4.41,0,0,0-7.51,3.5,4.44,4.44,0,0,0,4.34,4.79,5.4,5.4,0,0,0,4-1.82L73.33,18a6.81,6.81,0,0,1-11.78-4.83A6.7,6.7,0,0,1,68.21,6.13Zm6,15.66a2.92,2.92,0,0,0,1.14.21,1.26,1.26,0,0,0,1.24-1.39,2,2,0,0,0-.12-.68l-3.55-9.71h2.43l2.43,7.07L80,10.23h2.32L78.43,21.7A2.79,2.79,0,0,1,75.61,24a3.87,3.87,0,0,1-1.39-.23Z"/><path class="a" d="M97.76,19.88H95.52V14.57c0-1.66-.52-2.61-1.78-2.61s-2.12,1.14-2.12,3.15v4.77H89.38V14.05c0-1.27-.58-2.09-1.74-2.09-1.45,0-2.1,1.35-2.1,3.15v4.77H83.3V10.23h2.24v1.89A3.15,3.15,0,0,1,88.61,10a2.6,2.6,0,0,1,2.66,2,3.34,3.34,0,0,1,3.11-2c2.28,0,3.38,1.53,3.38,4.73Z"/><path class="a" d="M105.14,12.49a2.09,2.09,0,0,0-1.31-.48c-1.56,0-2.41,1.33-2.41,3.34v4.54H99.17V10.23h2.24V12a2.76,2.76,0,0,1,2.76-2,2.71,2.71,0,0,1,1.85.73Z"/><path class="a" d="M106.84,10.23h2.24v5c0,1.89.58,3,2,3s2.41-1,2.41-3.28V10.23h2.24v6.45a6.74,6.74,0,0,0,.46,3.21H114a4.88,4.88,0,0,1-.42-2,3.27,3.27,0,0,1-3.17,2.18c-2.38,0-3.55-1.66-3.55-4.89Z"/><path class="a" d="M75.84,39.13H73.6L70.82,29,68,39.13H65.8L61.9,25.62h2.41L67,35.48l2.7-9.87H72l2.7,9.87,2.65-9.87h2.41Z"/><path class="a" d="M79.36,31.83a3.65,3.65,0,0,1,3.73-2.59c2.66,0,3.94,1.33,3.94,4.15v3.75a3.57,3.57,0,0,0,.62,2H85.4a3.12,3.12,0,0,1-.62-1.6,2.54,2.54,0,0,1-2.63,1.83A3,3,0,0,1,79,36.26c0-2,1.64-2.94,3.59-3.19l2.18-.29A1.55,1.55,0,0,0,83.08,31a1.69,1.69,0,0,0-1.78,1.51Zm5.43,3.3v-.7l-1.83.25c-.89.12-1.78.46-1.78,1.53a1.3,1.3,0,0,0,1.43,1.29A2.13,2.13,0,0,0,84.78,35.14Z"/><path class="a" d="M88.8,25.62H91V35.93a6.74,6.74,0,0,0,.46,3.21H89.26a7.26,7.26,0,0,1-.46-3.21Z"/><path class="a" d="M94.73,34.87a2.68,2.68,0,0,0,2.76,2.57A3.28,3.28,0,0,0,100.23,36l1.31,1.43a5,5,0,0,1-4.06,1.89,4.83,4.83,0,0,1-5-5.06,4.81,4.81,0,0,1,4.77-5.06,4.08,4.08,0,0,1,4.35,4.13,8.45,8.45,0,0,1-.12,1.49Zm.15-1.82h4.6a2.06,2.06,0,0,0-2.22-1.91A2.34,2.34,0,0,0,94.89,33.05Z"/><path class="a" d="M105.8,34.94c-1.53-.6-2.8-1.49-2.8-3,0-1.74,1.55-2.74,3.4-2.74a4.16,4.16,0,0,1,3.24,1.49l-1.12,1.43a3.36,3.36,0,0,0-2.14-1.1c-.83,0-1.37.31-1.37.81s.91,1,2.18,1.53c1.8.79,2.67,1.64,2.67,3,0,1.91-1.51,3-3.44,3a4.33,4.33,0,0,1-3.88-2.09l1.54-1.43a2.63,2.63,0,0,0,2.34,1.51c.71,0,1.27-.37,1.27-.95S107.17,35.48,105.8,34.94Z"/><path class="a" d="M10.11,26.27C6.87,24.84,5,22.13,5.24,20c.15-1.22.16-1.66-.28-2.17a1.77,1.77,0,0,0-1.7-.58A1,1,0,0,1,3.65,19l-.13.09a2,2,0,0,0-1.85-1.53A1.9,1.9,0,0,0,0,18.63a1.06,1.06,0,0,1,.64-.21,1.23,1.23,0,0,1,0,2.45A1.06,1.06,0,0,1,0,20.65a1.9,1.9,0,0,0,1.68,1.08l.28,0a4,4,0,0,0,1.91,2.62,3.38,3.38,0,0,0-.14,2.28,4.32,4.32,0,0,1-.25,2.88,3.1,3.1,0,0,0,2-2.13c.2,0,2.32.1,3.14,2.88a3.77,3.77,0,0,1-1.5,4.11,3.78,3.78,0,0,0,2.73-1,8.34,8.34,0,0,0,1.12.94,7.8,7.8,0,0,0,0-2.38A7.35,7.35,0,0,1,10.11,26.27Z"/><path class="a" d="M21.46,9.26c.2-.1,1.33-.69,1.27-1.68A2.18,2.18,0,0,0,22,6.07a1.88,1.88,0,0,1-1.7,2c-1.53.36-1.8,1.37-1.79,1.65A6,6,0,0,0,21.46,9.26Z"/><path class="a" d="M11.54,30.58A4.76,4.76,0,0,1,15,26.63a11.38,11.38,0,0,1,.5-2.08,5.36,5.36,0,0,0-4.12,2A5.54,5.54,0,0,0,11.54,30.58Z"/><path class="a" d="M15.91,23.32l0-.07.63-2A5.3,5.3,0,0,0,13,22.52a4.26,4.26,0,0,0-1.34,2.27A6.36,6.36,0,0,1,15.91,23.32Z"/><path class="a" d="M6.46,13.87c.05-.1.32-.61.31-.61C3.46,12.37,2,13.8,2,13.8s2-.71,3.7,1.64c0,0,.14-.29.37-.76v0c.3.22,3,2.07,5.59,1.21l.91-1.3A6.79,6.79,0,0,1,6.46,13.87Z"/><path class="a" d="M24.53,6.39l0,0a5.17,5.17,0,0,1-4.81,4.22,9.4,9.4,0,0,1-1.94-.2l-.42-.09h0a4.4,4.4,0,0,0-3.55.38c-.23.29-.61,1.53-1.72,1.64h-.28c-1.35,0-3.09-.41-3.86,1.41a2.44,2.44,0,0,1,1-.28l1.34,1L12.7,14l.13,0,1.67,1.64-3.08,1.23a2.15,2.15,0,0,1-.87-.16l1.18,3a3.31,3.31,0,0,1,1.8-2.12,3,3,0,0,1,2.93-.06A5.09,5.09,0,0,0,13.52,21a5.47,5.47,0,0,1,3.43-1l1.91-5.82c-.19-.11-2.9-2.13-2.9-2.13a4,4,0,0,1-1.71.29h0a.16.16,0,0,1-.12-.13.16.16,0,0,1,.05-.14,6.46,6.46,0,0,0,2.08-1h.07l3.11,2.3a9.07,9.07,0,0,1,4.22-1.72A3.65,3.65,0,0,0,24.53,6.39Zm-10.3,6h0Z"/><path class="a" d="M20.31,28v0Z"/><path class="a" d="M50.22,9.36c-.67-.25-3-.75-2.51-2.11C48.36,5.38,52.1,4.3,52.1,4.3,41.34,5.76,33.15,9.17,27.71,14.91l-.27.3a20.88,20.88,0,0,0-3.56,5.47C24.76,18.47,29.12,8,43.28,5,41.93,4.86,40,4.5,39.73,3.53S40.78.86,42.11,0C29.81,3.34,24.45,13.34,21.48,21.52a3.24,3.24,0,0,0-1.27,1.35c.44-1.06,2.55-6.3,2.12-9.55a6,6,0,0,0-2.23,1.19c-.77,2.31-3,8.42-3.53,10.17-.75,2.38-.67,5,1.44,5.92a4,4,0,0,0,1.38.23A29,29,0,0,0,25.53,30c.8-.18,1.62-.41,2.6-.7l1.28-.36A4.59,4.59,0,0,0,28,25a6.19,6.19,0,0,0-4-1.34,6.41,6.41,0,0,1,4.22.16,5.89,5.89,0,0,1,6.33-.59s2.59-4,7.81-1.74a6.11,6.11,0,0,1,6.58-5.72C48.84,15.75,44,11.49,50.22,9.36Zm-10,9.87A11,11,0,0,0,34,16.95l-.56,0a7.36,7.36,0,0,0-4.76,1.93,5.51,5.51,0,0,1,4.54,2.18l.23.32-.32-.24a8,8,0,0,0-4.22-1.44,4.92,4.92,0,0,0-1.82.35,8.18,8.18,0,0,0-1.32.74l-.54.43-.25.2.47-.84a8.84,8.84,0,0,1,4.27-3.82,6.54,6.54,0,0,1,1.47-.47,8.79,8.79,0,0,1,1.91-.21,9.62,9.62,0,0,1,7.24,3Zm-3-6.87h.69a21.83,21.83,0,0,1,7.55,1.4l0,.12a35.18,35.18,0,0,0-7.07-.72c-.53,0-1.05,0-1.57,0a14.78,14.78,0,0,0-6.27,2l-.24.13-.08-.11,0,0c5.43-4.5,11.62-5.54,15.8-5.93l0,.12c-.07,0-6.63,1.34-9.59,3Z"/><path class="a" d="M22.42,31.69a22.4,22.4,0,0,1-3,.25A4.29,4.29,0,0,1,16.49,31,4,4,0,0,1,15,28a3.75,3.75,0,0,0-2,1.74,5.9,5.9,0,0,0-.71,2.55,5.65,5.65,0,0,1-1.14,4.49,3.84,3.84,0,0,1-.28,1.62c-.45,1.1-1.43,3.13-3.16,3.73a1.6,1.6,0,0,1-1.43-.74c-1.4-1.9-2.8-1.09-3.28-.57a.79.79,0,0,1,1.2.68.92.92,0,0,1-.94.78h0a1.52,1.52,0,0,0-1.62,1.91l0,0a1,1,0,1,1,1,1.45,1.07,1.07,0,0,1-.27.08h0a1.46,1.46,0,0,0,2-.33,5.57,5.57,0,0,0,5.1,0,3.14,3.14,0,0,0,2.43.09c.88-.31,2.2-.85,3.39,0-.49-2.09-2.73-2.22-2.73-4.66a1.87,1.87,0,0,1,3.54-.79,1.56,1.56,0,0,0-.49-2.1c1.14-1.29,3.12-.37,3.12-.37a1.8,1.8,0,0,0-.18-1.08C21,35.47,22.11,32.73,22.42,31.69Z"/><path class="a" d="M24.47,34.66a9.09,9.09,0,0,0,1.11-3.55q-1,.23-2,.39a11.84,11.84,0,0,1-1.79,3.8A3.15,3.15,0,0,0,24.47,34.66Z"/><path class="a" d="M28.2,34l0,0A9.3,9.3,0,0,0,29.53,30l-1,.28c-.66.19-1.28.37-1.88.53a12.47,12.47,0,0,1-1.18,4.06A3.57,3.57,0,0,0,28.2,34Z"/><path class="a" d="M32.81,29.22c-.78.16-1.43.32-2.17.51a9.13,9.13,0,0,1-1.22,4.33,4.41,4.41,0,0,0,1.87-.82A8.94,8.94,0,0,0,32.81,29.22Z"/><path class="a" d="M33.92,27.89a18.69,18.69,0,0,1,1.89-.21c-.11-2.52-1.44-3.43-1.79-3.62A2.86,2.86,0,0,0,32.19,24,5.83,5.83,0,0,1,33.92,27.89Z"/><path class="a" d="M30.53,28.61c.74-.2,1.5-.38,2.28-.53-.18-2.57-1.49-3.52-2-3.79a3.25,3.25,0,0,0-1.78.12A5.43,5.43,0,0,1,30.53,28.61Z"/><path class="a" d="M34.05,41.07a2.47,2.47,0,0,1,.65-1.65,1.31,1.31,0,0,1,1.48.91,1.64,1.64,0,0,0-.55-1.95A1.6,1.6,0,0,1,35.29,37a1.88,1.88,0,0,1,.48-1,3.71,3.71,0,0,1,.77-.82A5.89,5.89,0,0,0,30.33,35a2.79,2.79,0,0,0-.55,2.77A7.55,7.55,0,0,1,32,40.63a1.37,1.37,0,0,1-2.43,1.26c-1.2-1.39-2.3-1.42-3-1.2a.79.79,0,0,1,.67.78.91.91,0,0,1-.93.78A1.49,1.49,0,0,0,24.62,44a1.18,1.18,0,1,1,1.44,1.84,1.54,1.54,0,0,0,1.57-.45,5.28,5.28,0,0,0,5.14-.31,1.91,1.91,0,0,0,2.37.35,2,2,0,0,1,2.08.21C36.38,43.63,34.05,44.07,34.05,41.07Z"/><path class="a" d="M50,43.07c-1.9-1.36-2.36-2.66-1.84-3.17s1.45,0,1.45,0c-.47-1.21-1.21-1.21-1.72-1.44C45.08,37.22,45,34.17,44,32.37a9.31,9.31,0,0,0-5.22-3.43A14.82,14.82,0,0,0,34,29a10.63,10.63,0,0,1-1.2,4.08A6.3,6.3,0,0,1,37,34.28l.11.08.09.07.28.22.06,0,.27.24.07.06h0a8.68,8.68,0,0,1,2,2.94c3-.25,5.18,2.37,5.53,3,.6,1.09-.45,2.18-2,.6s-2.75-.75-3.2-.25a.76.76,0,0,1,1.17.65.79.79,0,0,1-.76.76h0c-2,.29-1.33,1.9-1.33,1.9h0a1.12,1.12,0,1,1,1.61,1.47,2.23,2.23,0,0,0,1.55-.25A8.25,8.25,0,0,0,48,45.55a3.13,3.13,0,0,0,2.71.36,2.38,2.38,0,0,1,2.48.62C52.79,44.29,51.09,43.88,50,43.07Z"/><path class="a" d="M49.95,15.9a6.91,6.91,0,0,1,1.21.82l-1.08,1.13a5,5,0,0,1,.91.88l1.14-1.19a7,7,0,0,1,1.14,1.21c1.06-4.9,5-5.52,5-5.52S54.77,11.95,49.95,15.9Z"/><path class="a" d="M47.12,17.64h0a3.21,3.21,0,0,0-3.27,3.07,2.5,2.5,0,0,0,2.54,2.41,2.11,2.11,0,0,0,1.81-1,1.8,1.8,0,0,0-.51-1.21,1.34,1.34,0,0,1-.82.36.68.68,0,0,1-.75-.7c0-.45.59-.72,1-.72,1.27,0,1.81,1.19,1.81,2.51,0,1.84-1.91,3.28-3.66,3.28h0c-2.88,0-4.78-2.84-10-1.88,0,0,1.48,1,1.75,3.88a10.94,10.94,0,0,1,1.86.17,8.37,8.37,0,0,1,5.91,3.95c1.75-.34,7.45-2.79,7.45-8.35C52.11,21.39,50.74,17.64,47.12,17.64Z"/></svg>