<?xml version="1.0" encoding="utf-8"?>
<!-- Generator: Adobe Illustrator 21.1.0, SVG Export Plug-In . SVG Version: 6.00 Build 0)  -->
<svg version="1.1" id="Layer_1" xmlns="http://www.w3.org/2000/svg" xmlns:xlink="http://www.w3.org/1999/xlink" x="0px" y="0px"
	 viewBox="0 0 662 662" style="enable-background:new 0 0 662 662;" xml:space="preserve">
<style type="text/css">
	.st0{fill:#FFE100;}
	.st1{fill:url(#SVGID_1_);}
	.st2{fill:url(#SVGID_2_);}
	.st3{fill:url(#SVGID_3_);}
	.st4{fill:url(#SVGID_4_);}
	.st5{fill:url(#SVGID_5_);}
	.st6{fill:url(#SVGID_6_);}
	.st7{fill:url(#SVGID_7_);}
	.st8{fill:url(#SVGID_8_);}
	.st9{fill:url(#SVGID_9_);}
	.st10{fill:url(#SVGID_10_);}
	.st11{fill:#150301;}
</style>
<title>partner</title>
<rect class="st0" width="662" height="662"/>
<linearGradient id="SVGID_1_" gradientUnits="userSpaceOnUse" x1="-141.0676" y1="1229.2897" x2="-129.375" y2="1232.7465" gradientTransform="matrix(77.3572 0 0 -77.3572 10528.0225 95825.1562)">
	<stop  offset="0" style="stop-color:#FFE419"/>
	<stop  offset="0.34" style="stop-color:#FFFFFF"/>
	<stop  offset="0.66" style="stop-color:#FFFFFF"/>
	<stop  offset="1" style="stop-color:#FFE419"/>
</linearGradient>
<path class="st1" d="M501.6,468.8c-147.2,26-294.6,60.5-441.5,104c-20.1,5.9-40.1,12-60,18.3v51.9c24.8-6.8,49.7-13.9,74.5-21.3
	C221.4,578.2,363.9,527,501.6,468.8z"/>
<linearGradient id="SVGID_2_" gradientUnits="userSpaceOnUse" x1="-140.0637" y1="1230.3613" x2="-128.8375" y2="1234.0112" gradientTransform="matrix(77.3572 0 0 -77.3572 10528.0225 95825.1562)">
	<stop  offset="0" style="stop-color:#FFE419"/>
	<stop  offset="0.355" style="stop-color:#FFFFFF"/>
	<stop  offset="0.645" style="stop-color:#FFFFFF"/>
	<stop  offset="1" style="stop-color:#FFE419"/>
</linearGradient>
<path class="st2" d="M543.3,371.4C402.1,401.5,260.7,439.2,119.8,485C79.5,498.1,39.6,511.8,0,526v43.7
	c44.7-12.9,89.3-26.6,134-41.1C274.8,482.8,411.4,430.2,543.3,371.4z"/>
<linearGradient id="SVGID_3_" gradientUnits="userSpaceOnUse" x1="-139.1197" y1="1231.3705" x2="-128.3231" y2="1235.2191" gradientTransform="matrix(77.3572 0 0 -77.3572 10528.0225 95825.1562)">
	<stop  offset="0" style="stop-color:#FFE419"/>
	<stop  offset="0.37" style="stop-color:#FFFFFF"/>
	<stop  offset="0.63" style="stop-color:#FFFFFF"/>
	<stop  offset="1" style="stop-color:#FFE419"/>
</linearGradient>
<path class="st3" d="M583.4,278.4C447.5,312,311.6,352.8,176.3,401C116.7,422.3,57.9,444.7,0,468.3v35.7
	c63.6-19.4,127.1-40.3,190.5-62.9C325.8,392.8,456.9,338.4,583.4,278.4z"/>
<linearGradient id="SVGID_4_" gradientUnits="userSpaceOnUse" x1="-138.2253" y1="1232.326" x2="-127.8332" y2="1236.3778" gradientTransform="matrix(77.3572 0 0 -77.3572 10528.0225 95825.1562)">
	<stop  offset="0" style="stop-color:#FFE419"/>
	<stop  offset="0.385" style="stop-color:#FFFFFF"/>
	<stop  offset="0.615" style="stop-color:#FFFFFF"/>
	<stop  offset="1" style="stop-color:#FFE419"/>
</linearGradient>
<path class="st4" d="M621.6,189.3C490.8,226.4,360.1,270.2,230,320.9c-78.2,30.5-154.9,63-230,97.4v26.2
	c81.6-26.3,163-55.3,244.3-87C374.3,306.7,500.2,250.5,621.6,189.3z"/>
<linearGradient id="SVGID_5_" gradientUnits="userSpaceOnUse" x1="-137.3675" y1="1233.238" x2="-127.3566" y2="1237.4977" gradientTransform="matrix(77.3572 0 0 -77.3572 10528.0225 95825.1562)">
	<stop  offset="0" style="stop-color:#FFE419"/>
	<stop  offset="0.4" style="stop-color:#FFFFFF"/>
	<stop  offset="0.6" style="stop-color:#FFFFFF"/>
	<stop  offset="1" style="stop-color:#FFE419"/>
</linearGradient>
<path class="st5" d="M658.5,103.3c-126,40.7-251.8,87.5-377,140.8C185.2,285.1,91.3,328.9,0,375.5V391
	c98.8-34,197.4-71.9,295.6-113.6C420.8,224.1,541.8,165.9,658.5,103.3z"/>
<linearGradient id="SVGID_6_" gradientUnits="userSpaceOnUse" x1="-136.547" y1="1234.1096" x2="-126.8933" y2="1238.5846" gradientTransform="matrix(77.3572 0 0 -77.3572 10528.0225 95825.1562)">
	<stop  offset="0" style="stop-color:#FFE626"/>
	<stop  offset="0.415" style="stop-color:#FFFFFF"/>
	<stop  offset="0.585" style="stop-color:#FFFFFF"/>
	<stop  offset="1" style="stop-color:#FFE419"/>
</linearGradient>
<path class="st6" d="M662,38.2v-6.4C551.4,73,441,119.1,331.2,170C217.1,222.8,106.7,279.6,0,339.8v3.7
	c115.4-42.6,230.6-90.4,345.1-143.5C454.1,149.5,559.8,95.4,662,38.2z"/>
<linearGradient id="SVGID_7_" gradientUnits="userSpaceOnUse" x1="-135.7633" y1="1234.9443" x2="-126.4432" y2="1239.644" gradientTransform="matrix(77.3572 0 0 -77.3572 10528.0225 95825.1562)">
	<stop  offset="0" style="stop-color:#FFE733"/>
	<stop  offset="0.43" style="stop-color:#FFFFFF"/>
	<stop  offset="0.57" style="stop-color:#FFFFFF"/>
	<stop  offset="1" style="stop-color:#FFE419"/>
</linearGradient>
<path class="st7" d="M42.2,285c117.2-48,234.3-101.3,350.6-159.9C472.1,85.1,549.6,43.4,625.3,0h-39.5
	c-69,30.9-137.9,63.6-206.5,98.2C262.9,156.8,150.5,219.3,42.2,285z"/>
<linearGradient id="SVGID_8_" gradientUnits="userSpaceOnUse" x1="-134.9996" y1="1235.7531" x2="-126.0002" y2="1240.6841" gradientTransform="matrix(77.3572 0 0 -77.3572 10528.0225 95825.1562)">
	<stop  offset="0" style="stop-color:#FFE940"/>
	<stop  offset="0.445" style="stop-color:#FFFFFF"/>
	<stop  offset="0.555" style="stop-color:#FFFFFF"/>
	<stop  offset="1" style="stop-color:#FFE419"/>
</linearGradient>
<path class="st8" d="M100.8,222c113.1-51.7,226-108.3,338.2-169.8c31.3-17.2,62.3-34.6,93.1-52.2h-53.7c-17.5,9.3-35,18.8-52.4,28.4
	C313.7,89.8,205.2,154.5,100.8,222z"/>
<linearGradient id="SVGID_9_" gradientUnits="userSpaceOnUse" x1="-134.2455" y1="1236.5505" x2="-125.5743" y2="1241.7095" gradientTransform="matrix(77.3572 0 0 -77.3572 10528.0225 95825.1562)">
	<stop  offset="0" style="stop-color:#FFEA4C"/>
	<stop  offset="0.46" style="stop-color:#FFFFFF"/>
	<stop  offset="0.54" style="stop-color:#FFFFFF"/>
	<stop  offset="1" style="stop-color:#FFE419"/>
</linearGradient>
<path class="st9" d="M450.4,0h-46.1c-84.1,51.6-166,104.8-245.4,159.5C256.3,109.9,353.6,56.7,450.4,0z"/>
<linearGradient id="SVGID_10_" gradientUnits="userSpaceOnUse" x1="-133.4837" y1="1237.3528" x2="-125.1331" y2="1242.7446" gradientTransform="matrix(77.3572 0 0 -77.3572 10528.0225 95825.1562)">
	<stop  offset="0" style="stop-color:#FFEC59"/>
	<stop  offset="0.475" style="stop-color:#FFFFFF"/>
	<stop  offset="0.525" style="stop-color:#FFFFFF"/>
	<stop  offset="1" style="stop-color:#FFE419"/>
</linearGradient>
<path class="st10" d="M382.4,0h-29.1c-46.1,31.9-91.5,64.2-136.2,96.9C272.3,65.7,327.4,33.4,382.4,0z"/>
<path class="st11" d="M239.9,637.8l35.7-161.1l44.1,0l-19.2,85.7l35.6-43h49.3l-44.2,53.7l18.2,64.6h-44l-18.2-61.2l-14.4,61.2
	L239.9,637.8L239.9,637.8z M80.9,556.9l31,81h42.2l36.4-161.1l-43.5,0l-18.4,81.9l-30.5-82H54.1L18.1,637.8h44.3
	C67.5,612,74.2,584.8,80.9,556.9z M218.8,637.8l26.4-118.3H202l-26.4,118.3H218.8z M204.2,493.6c0,3.7,0.9,16.8,24.6,16.8
	c19.7,0,27.3-12.6,27.3-22c0-6.3-5.2-17.3-24.6-17.3C213.6,471.1,204.2,483.1,204.2,493.6z M620.3,518c-18.5-5.5-41.4,3.6-52.7,19.3
	c1.1-4.9,2.3-10.5,3.6-17h-43.9l-25.7,117.6h43.7l14.6-66.7c2.7-12.3,12.5-17.5,21.3-15.3c3.8,1,9,3.9,7.2,14.1l-14.8,67.9h43.2
	l19.8-90.6C640.7,527.3,624.3,519.2,620.3,518z M473.4,627.2c19-15.5,28.3-41.7,28-66.4c-0.3-23.7-20.4-46.2-55.3-46.2
	c-66.6,0-76.3,51.9-78.2,61.4c-4.9,24,0.5,55.1,31.8,63.3C420.4,644.7,452.6,644.1,473.4,627.2z M424.5,558.6
	c3.1-8.6,11.7-10.5,15.5-10.6c9.5-0.1,12.2,5.6,11.3,10.9c-2.3,14.8-7.4,33.6-9.3,39.5c0,0.1,0,0.2-0.1,0.2
	c-2.1,6.5-8.2,10.3-15.5,10.3c-7.3,0-11.8-4.6-11.1-10.5C416.5,588.6,422.7,563.5,424.5,558.6z"/>
</svg>
