<svg xmlns="http://www.w3.org/2000/svg" viewBox="0 0 116.1 46.8"><defs><style>.a{fill:#fff;}.b{fill:#cd0014;}</style></defs><title>partner</title><path class="a" d="M68.2,6.1a6.1,6.1,0,0,1,4.5,1.6L71.4,9.6a4.41,4.41,0,0,0-6.2,0,4.52,4.52,0,0,0-1.3,3.5A4.47,4.47,0,0,0,68,17.9h.3a5.53,5.53,0,0,0,4-1.8L73.4,18a6.8,6.8,0,0,1-9.6.3,7,7,0,0,1-2.2-5.1,6.69,6.69,0,0,1,6.3-7A.37.37,0,0,1,68.2,6.1Zm6,15.7a4.25,4.25,0,0,0,1.1.2,1.18,1.18,0,0,0,1.2-1.3v-.1a1.7,1.7,0,0,0-.1-.7l-3.5-9.7h2.4l2.4,7.1,2.2-7.1h2.3L78.3,21.7A2.55,2.55,0,0,1,75.6,24a6.75,6.75,0,0,1-1.4-.2Z" transform="translate(0 0)"/><path class="a" d="M97.7,19.9H95.5V14.6c0-1.7-.5-2.6-1.8-2.6s-2.1,1.1-2.1,3.1v4.8H89.4V14c0-1.3-.6-2.1-1.7-2.1-1.4,0-2.1,1.3-2.1,3.1v4.8H83.4V10.2h2.2v1.9A3,3,0,0,1,88.7,10a2.6,2.6,0,0,1,2.7,2,3.42,3.42,0,0,1,3.1-2c2.3,0,3.4,1.5,3.4,4.7v5.2Z" transform="translate(0 0)"/><path class="a" d="M105.1,12.5a2.11,2.11,0,0,0-1.3-.5c-1.6,0-2.4,1.3-2.4,3.3v4.5H99.2V10.1h2.2V12a2.82,2.82,0,0,1,2.8-2,2.87,2.87,0,0,1,1.8.7Z" transform="translate(0 0)"/><path class="a" d="M106.8,10.2H109v5c0,1.9.6,3,2,3s2.4-1,2.4-3.3V10.2h2.2v6.4a5.86,5.86,0,0,0,.5,3.2H114a4.48,4.48,0,0,1-.4-2,3.48,3.48,0,0,1-3.2,2.2c-2.4,0-3.5-1.7-3.5-4.9Z" transform="translate(0 0)"/><path class="a" d="M75.8,39.1H73.6L70.8,29,68,39.1H65.8L61.9,25.6h2.4L67,35.5l2.7-9.9H72l2.7,9.9,2.6-9.9h2.4Z" transform="translate(0 0)"/><path class="a" d="M79.3,31.8A3.67,3.67,0,0,1,83,29.2c2.7,0,3.9,1.3,3.9,4.1V37a3.61,3.61,0,0,0,.6,2H85.3a2.45,2.45,0,0,1-.6-1.6,2.4,2.4,0,0,1-2.6,1.8A2.87,2.87,0,0,1,79,36.4v-.3c0-2,1.6-2.9,3.6-3.2l2.2-.3a1.63,1.63,0,0,0-1.3-1.8h-.4a1.67,1.67,0,0,0-1.8,1.5Zm5.5,3.3v-.7l-1.8.2c-.9.1-1.8.5-1.8,1.5a1.32,1.32,0,0,0,1.3,1.3h.1a2.14,2.14,0,0,0,2.2-2.1v-.2Z" transform="translate(0 0)"/><path class="a" d="M88.8,25.6H91V35.9a5.86,5.86,0,0,0,.5,3.2H89.3a7,7,0,0,1-.5-3.2Z" transform="translate(0 0)"/><path class="a" d="M94.7,34.9a2.76,2.76,0,0,0,2.8,2.6,3.19,3.19,0,0,0,2.7-1.4l1.3,1.4a5.33,5.33,0,0,1-4.1,1.9,4.81,4.81,0,0,1-5-4.6v-.4A4.89,4.89,0,0,1,97,29.3h.2a4.11,4.11,0,0,1,4.3,3.8v.3a7.57,7.57,0,0,1-.1,1.5Zm.2-1.9h4.6a2.1,2.1,0,0,0-2.2-1.9h0A2.38,2.38,0,0,0,94.9,33Z" transform="translate(0 0)"/><path class="a" d="M105.8,34.9c-1.5-.6-2.8-1.5-2.8-3,0-1.7,1.5-2.7,3.4-2.7a4.07,4.07,0,0,1,3.2,1.5l-1.1,1.4a3.6,3.6,0,0,0-2.1-1.1c-.8,0-1.4.3-1.4.8s.9,1,2.2,1.5c1.8.8,2.7,1.6,2.7,3,0,1.9-1.5,3-3.4,3a4.17,4.17,0,0,1-3.9-2.1l1.5-1.4a2.53,2.53,0,0,0,2.3,1.5c.7,0,1.3-.4,1.3-.9S107.2,35.5,105.8,34.9Z" transform="translate(0 0)"/><path class="b" d="M10.1,26.3C6.9,24.8,5,22.1,5.3,20c.1-1.2.2-1.7-.3-2.2a1.83,1.83,0,0,0-1.7-.6A1,1,0,0,1,4,18.4a.85.85,0,0,1-.3.6l-.1.1a1.9,1.9,0,0,0-1.8-1.5,2,2,0,0,0-1.8,1,1.42,1.42,0,0,1,.6-.2,1.21,1.21,0,0,1,1.1,1.3A1.18,1.18,0,0,1,.6,20.8a1.07,1.07,0,0,1-.6-.2,2,2,0,0,0,1.7,1.1H2a3.64,3.64,0,0,0,1.9,2.6,3,3,0,0,0-.1,2.3,4.76,4.76,0,0,1-.2,2.9,3,3,0,0,0,2-2.1c.2,0,2.3.1,3.1,2.9a3.86,3.86,0,0,1-1.5,4.1,3.78,3.78,0,0,0,2.7-1,4.81,4.81,0,0,0,1.1.9,9.64,9.64,0,0,0,0-2.4A7,7,0,0,1,10.1,26.3Z" transform="translate(0 0)"/><path class="b" d="M21.5,9.3c.2-.1,1.3-.7,1.3-1.7a2.13,2.13,0,0,0-.7-1.5,1.88,1.88,0,0,1-1.7,2c-1.5.4-1.8,1.4-1.8,1.6A6,6,0,0,0,21.5,9.3Z" transform="translate(0 0)"/><path class="b" d="M11.5,30.6A4.7,4.7,0,0,1,15,26.7a16,16,0,0,1,.5-2.1,5.42,5.42,0,0,0-4.1,2A5.53,5.53,0,0,0,11.5,30.6Z" transform="translate(0 0)"/><path class="b" d="M15.9,23.3h0l.6-2.1A4.91,4.91,0,0,0,13,22.5a4.1,4.1,0,0,0-1.3,2.3A6.55,6.55,0,0,1,15.9,23.3Z" transform="translate(0 0)"/><path class="b" d="M6.5,13.9a3.33,3.33,0,0,1,.3-.6c-3.3-.9-4.8.5-4.8.5s2-.7,3.7,1.6a4.56,4.56,0,0,1,.4-.8h0c.3.2,3,2.1,5.6,1.2l.9-1.3A6.58,6.58,0,0,1,6.5,13.9Z" transform="translate(0 0)"/><path class="b" d="M24.5,6.4h0a5.12,5.12,0,0,1-4.8,4.2,11.08,11.08,0,0,1-1.9-.2l-.4-.1h0a4.26,4.26,0,0,0-3.5.4c-.2.3-.6,1.5-1.7,1.6h-.3c-1.3,0-3.1-.4-3.9,1.4a1.93,1.93,0,0,1,1-.3l1.3,1,2.4-.5h.1l1.7,1.6-3.1,1.2a1.49,1.49,0,0,1-.9-.2l1.2,3a3.41,3.41,0,0,1,1.8-2.1,3,3,0,0,1,2.9-.1,4.7,4.7,0,0,0-2.9,3.5,5.24,5.24,0,0,1,3.4-1L18.8,14A28.32,28.32,0,0,1,16,12a4.67,4.67,0,0,1-1.7.3h0a.1.1,0,0,1-.1-.1v-.1a5.8,5.8,0,0,0,2.1-1h.1l3.1,2.3a9.13,9.13,0,0,1,4.2-1.7,3.68,3.68,0,0,0,1-5.1Zm-10.3,6Z" transform="translate(0 0)"/><path class="b" d="M20.3,28Z" transform="translate(0 0)"/><path class="b" d="M50.2,9.4c-.7-.2-3-.7-2.5-2.1.6-1.9,4.4-2.9,4.4-2.9C41.3,5.8,33.2,9.2,27.7,14.9l-.3.3a20.11,20.11,0,0,0-3.6,5.5C24.8,18.5,29.1,8,43.3,5,42,4.9,40,4.5,39.8,3.5S40.8.8,42.2,0C29.8,3.3,24.5,13.3,21.5,21.5a4,4,0,0,0-1.3,1.3c.4-1.1,2.5-6.3,2.1-9.5a4.77,4.77,0,0,0-2.2,1.2c-.8,2.3-3,8.4-3.5,10.2-.7,2.4-.7,5,1.4,5.9a3.18,3.18,0,0,0,1.4.2,30.88,30.88,0,0,0,6.1-.8c.8-.2,1.6-.4,2.6-.7l1.3-.4A4.37,4.37,0,0,0,28,25a5.85,5.85,0,0,0-4-1.3,6.06,6.06,0,0,1,4.2.2,6,6,0,0,1,6.3-.6s2.6-4,7.8-1.7a6.08,6.08,0,0,1,6.5-5.7h.1C48.8,15.7,44,11.5,50.2,9.4Zm-10,9.8A11,11,0,0,0,34,16.9h-.6a7.59,7.59,0,0,0-4.8,1.9A5.5,5.5,0,0,1,33.1,21l.2.3-.3-.2a7.06,7.06,0,0,0-4.2-1.4A5.66,5.66,0,0,0,27,20c-.5.2-.9.5-1.3.7l-.5.4-.2.3.5-.8a9.23,9.23,0,0,1,5.8-4.3,12.25,12.25,0,0,1,1.9-.2,9.31,9.31,0,0,1,7.2,3Zm-3-6.8h.7a21.23,21.23,0,0,1,7.5,1.4v.1a33.53,33.53,0,0,0-7.1-.7H36.7a15.53,15.53,0,0,0-6.3,2l-.2.1-.1-.1h0c5.4-4.5,11.6-5.5,15.8-5.9v.1c-.1,0-6.6,1.3-9.6,3Z" transform="translate(0 0)"/><path class="b" d="M22.4,31.7a15.14,15.14,0,0,1-3,.2,4.2,4.2,0,0,1-2.9-.9A3.84,3.84,0,0,1,15,28a3.39,3.39,0,0,0-2,1.7,5.9,5.9,0,0,0-.7,2.5,5.61,5.61,0,0,1-1.1,4.5,4.15,4.15,0,0,1-.3,1.6c-.4,1.1-1.4,3.1-3.2,3.7a1.75,1.75,0,0,1-1.4-.7c-1.4-1.9-2.8-1.1-3.3-.6a.8.8,0,0,1,1.1.3.6.6,0,0,1,.1.4,1,1,0,0,1-.9.8h0a1.56,1.56,0,0,0-1.7,1.4v.6h0a.92.92,0,0,1,1.3-.4.92.92,0,0,1,.4,1.3.89.89,0,0,1-.8.5c-.1,0-.2.1-.3.1h0a1.55,1.55,0,0,0,2-.3,5.72,5.72,0,0,0,5.1,0,2.88,2.88,0,0,0,2.4.1c.9-.3,2.2-.8,3.4,0-.5-2.1-2.7-2.2-2.7-4.7A1.88,1.88,0,0,1,14.3,39a1.78,1.78,0,0,1,1.6,1,1.6,1.6,0,0,0-.5-2.1c1.1-1.3,3.1-.4,3.1-.4a1.47,1.47,0,0,0-.2-1.1C21,35.5,22.1,32.7,22.4,31.7Z" transform="translate(0 0)"/><path class="b" d="M24.5,34.6a8.94,8.94,0,0,0,1.1-3.5,14.16,14.16,0,0,1-2,.4,13.26,13.26,0,0,1-1.8,3.8A3.06,3.06,0,0,0,24.5,34.6Z" transform="translate(0 0)"/><path class="b" d="M28.2,34h0a9.44,9.44,0,0,0,1.3-4l-1,.3a18,18,0,0,1-1.9.5,14.84,14.84,0,0,1-1.2,4.1A3.8,3.8,0,0,0,28.2,34Z" transform="translate(0 0)"/><path class="b" d="M32.8,29.2c-.8.2-1.4.3-2.2.5A9.26,9.26,0,0,1,29.4,34a4.55,4.55,0,0,0,1.9-.8A9.24,9.24,0,0,0,32.8,29.2Z" transform="translate(0 0)"/><path class="b" d="M33.9,27.9a12.25,12.25,0,0,1,1.9-.2c-.1-2.5-1.4-3.4-1.8-3.6a3.67,3.67,0,0,0-1.8-.1A5.61,5.61,0,0,1,33.9,27.9Z" transform="translate(0 0)"/><path class="b" d="M30.5,28.6a15.54,15.54,0,0,1,2.3-.5c-.2-2.6-1.5-3.5-2-3.8a3.67,3.67,0,0,0-1.8.1A5.13,5.13,0,0,1,30.5,28.6Z" transform="translate(0 0)"/><path class="b" d="M34.1,41.1a2.27,2.27,0,0,1,.6-1.6,1.35,1.35,0,0,1,1.5.9,1.54,1.54,0,0,0-.5-1.9,1.74,1.74,0,0,1-.3-1.4,1.91,1.91,0,0,1,.5-1,3,3,0,0,1,.8-.8,6,6,0,0,0-6.2-.2,2.62,2.62,0,0,0-.5,2.8,7,7,0,0,1,2.2,2.9,1.36,1.36,0,0,1-.7,1.8,1.37,1.37,0,0,1-1.8-.6c-1.2-1.4-2.3-1.4-3-1.2a.85.85,0,0,1,.7.8,1,1,0,0,1-.9.8,1.48,1.48,0,0,0-1.7,1.2v.5a1.2,1.2,0,0,1,1.7,1.7c-.1.1-.2.1-.3.2a1.56,1.56,0,0,0,1.6-.4,5.15,5.15,0,0,0,5.1-.3,1.83,1.83,0,0,0,2.4.3,2.23,2.23,0,0,1,2.1.2C36.4,43.6,34.1,44.1,34.1,41.1Z" transform="translate(0 0)"/><path class="b" d="M50,43.1c-1.9-1.4-2.4-2.7-1.8-3.2s1.4,0,1.4,0a2.15,2.15,0,0,0-1.7-1.4c-2.8-1.2-2.9-4.3-3.9-6.1A9.19,9.19,0,0,0,38.8,29a15.46,15.46,0,0,0-4.8.1,10.18,10.18,0,0,1-1.2,4.1A6.29,6.29,0,0,1,37,34.4l.1.1.1.1.3.2h.1l.3.2.1.1h0A8.37,8.37,0,0,1,40,38c3-.2,5.2,2.4,5.5,3,.6,1.1-.4,2.2-2,.6s-2.7-.7-3.2-.2a.75.75,0,0,1,1,.2.6.6,0,0,1,.1.4c0,.4-.3.7-.8.8h0c-2,.3-1.3,1.9-1.3,1.9h0a1.1,1.1,0,1,1,1.9,1.1,1.38,1.38,0,0,1-.3.4,2.51,2.51,0,0,0,1.5-.2,8,8,0,0,0,5.5-.2,3.23,3.23,0,0,0,2.7.4,2.35,2.35,0,0,1,2.5.6C52.8,44.3,51.1,43.9,50,43.1Z" transform="translate(0 0)"/><path class="b" d="M49.9,15.9a8.34,8.34,0,0,1,1.2.8L50,17.8a7.64,7.64,0,0,1,.9.9L52,17.5a12,12,0,0,1,1.1,1.2c1.1-4.9,5-5.5,5-5.5S54.8,11.9,49.9,15.9Z" transform="translate(0 0)"/><path class="b" d="M47.1,17.6h0a3.29,3.29,0,0,0-3.3,3.1,2.45,2.45,0,0,0,2.5,2.4,2.23,2.23,0,0,0,1.8-1,1.66,1.66,0,0,0-.5-1.2,2,2,0,0,1-.8.4c-.4,0-.7-.2-.7-.6v-.1c0-.4.6-.7,1-.7,1.3,0,1.8,1.2,1.8,2.5,0,1.8-1.9,3.3-3.7,3.3h0c-2.9,0-4.8-2.8-10-1.9,0,0,1.5,1,1.7,3.9a13.66,13.66,0,0,1,1.9.2,8.41,8.41,0,0,1,5.9,3.9c1.7-.3,7.4-2.8,7.4-8.3C52.1,21.4,50.7,17.6,47.1,17.6Z" transform="translate(0 0)"/></svg>